<svg xmlns="http://www.w3.org/2000/svg" xmlns:xlink="http://www.w3.org/1999/xlink" width="43" zoomAndPan="magnify" viewBox="0 0 32.25 30.000001" height="40" preserveAspectRatio="xMidYMid meet" version="1.0"><path stroke-linecap="butt" transform="matrix(0.0199752, 0, 0, 0.0199752, 2.682458, -1.814585)" fill-opacity="1" fill="#e4c590" fill-rule="nonzero" stroke-linejoin="round" d="M 1191.574056 678.680557 C 1050.187722 438.93001 873.405916 335.090255 873.405916 335.090255 C 862.454831 335.28581 827.254914 337.241361 794.792768 363.836854 C 758.02841 393.952339 750.988427 434.823353 749.619541 444.405553 C 749.032876 458.09441 742.775113 478.82325 729.477366 500.138755 C 694.864115 554.503072 617.619852 558.023063 577.139947 507.960959 C 553.477781 478.627695 548.393348 444.405553 548.393348 444.405553 C 548.393348 436.192239 546.633352 381.241257 501.460125 344.085789 C 470.757976 318.859182 436.926944 315.7303 424.802528 315.143635 C 274.42066 437.75668 130.88322 707.427156 130.88322 707.427156 C 130.88322 707.427156 -23.80086 1000.173134 161.780925 1262.021406 C 347.36271 1524.065233 621.335399 1520.740797 621.335399 1520.740797 C 621.335399 1520.740797 823.539367 1543.816298 1004.81894 1433.327669 C 1186.098514 1322.839041 1245.742818 1141.755022 1245.742818 1141.755022 C 1245.742818 1141.755022 1332.96039 918.431104 1191.574056 678.680557 Z M 1161.263017 1051.799679 C 1133.103083 1232.297032 990.738974 1331.63902 990.738974 1331.63902 C 990.738974 1331.63902 894.134757 1433.914335 671.397503 1439.780987 C 448.66025 1445.64764 298.669492 1292.919111 298.669492 1292.919111 C 298.669492 1292.919111 175.274227 1185.754919 169.798684 985.310946 C 166.278692 852.137926 241.762959 749.080391 292.607284 694.91163 C 318.616111 667.142806 349.513817 644.653971 383.540403 627.836232 C 396.251484 621.578469 411.113671 614.929596 426.562524 608.867388 C 473.104637 590.680764 524.535627 587.942993 572.446625 602.02296 C 573.619956 602.41407 574.597731 602.609625 575.771062 603.000735 C 653.601989 627.249567 665.335295 616.689592 732.606248 594.591866 C 762.330622 584.814111 794.597213 586.769662 825.494918 592.04965 C 836.641559 594.005201 848.570419 596.742972 860.49928 600.654074 C 866.561488 602.80518 872.623696 604.760731 878.881459 606.716282 C 910.170274 616.689592 1020.463348 657.169497 1097.120945 762.964803 C 1097.120945 762.964803 1189.618505 871.302326 1161.263017 1051.799679 Z M 1161.263017 1051.799679 " stroke="#1d1d1b" stroke-width="5" stroke-opacity="1" stroke-miterlimit="10"/><path fill="#e4c590" d="M 18.734375 9.375 C 18.878906 9.304688 19.039062 9.261719 19.199219 9.226562 C 19.359375 9.195312 19.523438 9.179688 19.6875 9.175781 C 19.851562 9.175781 20.019531 9.1875 20.183594 9.214844 C 20.265625 9.226562 20.34375 9.246094 20.425781 9.265625 L 20.542969 9.296875 C 20.585938 9.308594 20.625 9.324219 20.664062 9.335938 C 20.820312 9.390625 20.972656 9.457031 21.117188 9.539062 C 21.132812 9.546875 21.152344 9.558594 21.171875 9.566406 L 21.222656 9.597656 C 21.257812 9.621094 21.292969 9.640625 21.328125 9.664062 C 21.394531 9.710938 21.464844 9.757812 21.53125 9.808594 C 21.789062 10.007812 22.019531 10.246094 22.207031 10.511719 C 21.964844 10.296875 21.714844 10.09375 21.449219 9.921875 L 21.398438 9.890625 C 21.382812 9.878906 21.363281 9.871094 21.347656 9.859375 L 21.246094 9.800781 C 21.210938 9.78125 21.175781 9.761719 21.140625 9.742188 L 21.089844 9.714844 C 21.074219 9.707031 21.054688 9.699219 21.039062 9.6875 L 20.929688 9.636719 L 20.824219 9.589844 C 20.789062 9.574219 20.75 9.5625 20.714844 9.546875 C 20.679688 9.53125 20.640625 9.519531 20.605469 9.507812 C 20.566406 9.492188 20.53125 9.480469 20.492188 9.46875 L 20.378906 9.4375 C 20.304688 9.414062 20.226562 9.394531 20.152344 9.382812 C 19.996094 9.351562 19.839844 9.328125 19.683594 9.316406 C 19.527344 9.304688 19.367188 9.304688 19.210938 9.3125 C 19.050781 9.324219 18.890625 9.339844 18.734375 9.375 Z M 18.734375 9.375 " fill-opacity="1" fill-rule="nonzero"/><path stroke-linecap="butt" transform="matrix(0.0199752, 0, 0, 0.0199752, 2.682458, -1.814585)" fill-opacity="1" fill="#ffffff" fill-rule="nonzero" stroke-linejoin="round" d="M 1089.689852 607.694058 C 1089.689852 607.694058 1099.467606 612.582935 1104.356484 607.694058 C 1109.440916 602.80518 1101.814268 589.898544 1101.814268 589.898544 C 1018.898907 462.983287 946.739077 456.138859 946.739077 456.138859 L 917.014703 508.156514 C 917.014703 508.156514 1014.01003 516.956493 1089.689852 607.694058 " stroke="#1d1d1b" stroke-width="5" stroke-opacity="1" stroke-miterlimit="10"/><path stroke-linecap="butt" transform="matrix(0.0184981, -0.0075384, 0.0075384, 0.0184981, -0.678213, 7.745613)" fill-opacity="1" fill="#ffffff" fill-rule="nonzero" stroke-linejoin="round" d="M 1156.206766 668.650214 C 1156.319747 679.254758 1154.554791 688.249321 1150.657003 695.741197 C 1146.94031 703.306872 1142.486178 706.982134 1137.147006 707.129172 C 1131.881634 707.095115 1127.475181 703.398856 1123.639259 695.7117 C 1119.910631 688.27944 1118.080374 679.297937 1118.041193 668.512298 C 1118.109307 657.981554 1119.874263 648.986992 1123.590956 641.421316 C 1127.488744 633.92944 1131.942876 630.254178 1137.282049 630.107141 C 1142.547421 630.141198 1146.953873 633.837457 1150.608701 641.450812 C 1154.518424 648.956873 1156.348681 657.938375 1156.206766 668.650214 Z M 1156.206766 668.650214 " stroke="#1d1d1b" stroke-width="5" stroke-opacity="1" stroke-miterlimit="10"/><path stroke-linecap="butt" transform="matrix(0.0199752, 0, 0, 0.0199752, 2.682458, -1.814585)" fill-opacity="1" fill="#ffffff" fill-rule="nonzero" stroke-linejoin="round" d="M 192.28752 787.01808 C 192.28752 794.644729 190.527524 801.293602 187.007532 806.769144 C 183.487541 812.049132 179.185329 814.786903 174.296451 814.786903 C 169.212019 814.786903 164.909807 812.049132 161.389815 806.769144 C 157.869823 801.293602 156.109827 794.644729 156.109827 787.01808 C 156.109827 779.391431 157.869823 772.938113 161.389815 767.46257 C 164.909807 761.987028 169.212019 759.444811 174.296451 759.444811 C 179.185329 759.444811 183.487541 761.987028 187.007532 767.46257 C 190.527524 772.938113 192.28752 779.391431 192.28752 787.01808 Z M 192.28752 787.01808 " stroke="#1d1d1b" stroke-width="5" stroke-opacity="1" stroke-miterlimit="10"/><path fill="#e4c590" d="M 8.625 11.003906 C 8.667969 10.925781 8.71875 10.851562 8.773438 10.78125 C 8.824219 10.707031 8.882812 10.636719 8.941406 10.566406 C 9.058594 10.429688 9.183594 10.300781 9.320312 10.183594 C 9.457031 10.0625 9.601562 9.953125 9.753906 9.851562 C 9.792969 9.828125 9.832031 9.800781 9.871094 9.777344 L 9.988281 9.710938 C 10.070312 9.667969 10.152344 9.625 10.234375 9.589844 C 10.570312 9.441406 10.929688 9.351562 11.296875 9.335938 C 11.320312 9.335938 11.34375 9.332031 11.363281 9.332031 L 11.433594 9.332031 C 11.480469 9.335938 11.523438 9.332031 11.570312 9.335938 C 11.660156 9.34375 11.75 9.351562 11.839844 9.367188 C 12.019531 9.394531 12.195312 9.445312 12.363281 9.507812 C 12.183594 9.484375 12.007812 9.457031 11.832031 9.457031 C 11.746094 9.449219 11.65625 9.453125 11.570312 9.457031 C 11.523438 9.457031 11.480469 9.460938 11.4375 9.464844 L 11.371094 9.46875 C 11.351562 9.46875 11.328125 9.472656 11.308594 9.476562 C 11.265625 9.480469 11.222656 9.488281 11.179688 9.492188 L 11.050781 9.515625 C 11.007812 9.523438 10.964844 9.535156 10.921875 9.546875 C 10.878906 9.554688 10.839844 9.5625 10.796875 9.578125 C 10.753906 9.589844 10.714844 9.601562 10.671875 9.613281 L 10.550781 9.65625 C 10.527344 9.664062 10.507812 9.671875 10.488281 9.679688 L 10.425781 9.703125 L 10.367188 9.726562 L 10.308594 9.753906 C 10.148438 9.824219 9.992188 9.90625 9.84375 9.996094 C 9.695312 10.085938 9.550781 10.183594 9.410156 10.289062 C 9.269531 10.398438 9.136719 10.511719 9.003906 10.628906 C 8.871094 10.746094 8.746094 10.871094 8.625 11.003906 Z M 8.625 11.003906 " fill-opacity="1" fill-rule="nonzero"/><path stroke-linecap="butt" transform="matrix(0.0199752, 0, 0, 0.0199752, 2.682458, -1.814585)" fill-opacity="1" fill="#ffffff" fill-rule="nonzero" stroke-linejoin="round" d="M 385.300399 429.934476 C 396.055929 435.018909 409.744786 444.209998 415.024773 460.636626 C 418.34921 471.587711 415.024773 483.321017 406.224794 490.752111 C 385.887064 507.960959 339.736062 548.440864 307.665026 585.791887 C 299.647267 595.178531 291.238398 604.174066 282.438419 612.77849 C 266.989566 628.227343 241.371849 658.342827 228.269658 700.191618 C 228.269658 700.191618 224.749666 718.378241 210.669699 720.529347 C 196.589732 722.680453 198.936393 692.760524 198.936393 692.760524 C 198.936393 692.760524 209.496368 622.947355 247.434057 567.409708 C 285.17619 512.067616 305.51392 488.209894 305.51392 488.209894 C 305.51392 488.209894 338.171621 451.641092 358.509351 433.845578 C 365.940445 427.39226 376.304865 425.827819 385.300399 429.934476 Z M 385.300399 429.934476 " stroke="#1d1d1b" stroke-width="5" stroke-opacity="1" stroke-miterlimit="10"/><path fill="#e4c590" d="M 26.136719 15.460938 C 26.238281 15.789062 26.3125 16.128906 26.375 16.472656 C 26.402344 16.640625 26.429688 16.8125 26.449219 16.984375 C 26.472656 17.15625 26.488281 17.332031 26.5 17.503906 C 26.550781 18.195312 26.535156 18.894531 26.4375 19.582031 C 26.339844 20.273438 26.160156 20.953125 25.890625 21.59375 C 25.824219 21.753906 25.75 21.914062 25.671875 22.070312 C 25.628906 22.144531 25.589844 22.222656 25.546875 22.300781 C 25.527344 22.335938 25.507812 22.375 25.484375 22.414062 L 25.417969 22.527344 C 25.238281 22.824219 25.035156 23.109375 24.816406 23.378906 L 24.820312 23.375 C 24.746094 23.484375 24.671875 23.582031 24.589844 23.679688 C 24.511719 23.78125 24.429688 23.875 24.34375 23.96875 C 24.171875 24.152344 23.992188 24.332031 23.804688 24.5 C 23.429688 24.835938 23.027344 25.136719 22.601562 25.410156 C 22.179688 25.679688 21.738281 25.921875 21.277344 26.125 C 20.820312 26.332031 20.351562 26.507812 19.871094 26.65625 C 20.34375 26.492188 20.808594 26.304688 21.261719 26.085938 C 21.375 26.035156 21.484375 25.976562 21.59375 25.917969 C 21.652344 25.890625 21.707031 25.859375 21.761719 25.832031 C 21.816406 25.800781 21.871094 25.773438 21.925781 25.742188 C 22.144531 25.617188 22.355469 25.484375 22.566406 25.351562 C 22.773438 25.210938 22.976562 25.066406 23.171875 24.914062 C 23.371094 24.761719 23.5625 24.601562 23.746094 24.433594 C 23.929688 24.265625 24.109375 24.089844 24.273438 23.90625 C 24.359375 23.8125 24.4375 23.71875 24.515625 23.621094 C 24.59375 23.523438 24.671875 23.425781 24.738281 23.324219 C 24.738281 23.320312 24.738281 23.320312 24.738281 23.320312 C 24.957031 23.050781 25.15625 22.769531 25.332031 22.476562 C 25.421875 22.328125 25.503906 22.175781 25.582031 22.023438 C 25.660156 21.871094 25.734375 21.714844 25.800781 21.554688 C 26.070312 20.921875 26.25 20.253906 26.351562 19.570312 C 26.457031 18.890625 26.484375 18.195312 26.445312 17.507812 C 26.425781 17.164062 26.394531 16.816406 26.34375 16.476562 C 26.316406 16.304688 26.289062 16.132812 26.253906 15.964844 C 26.21875 15.796875 26.183594 15.625 26.136719 15.460938 Z M 26.136719 15.460938 " fill-opacity="1" fill-rule="nonzero"/><path fill="#e4c590" d="M 5.695312 17.582031 C 5.6875 17.730469 5.6875 17.878906 5.691406 18.023438 C 5.695312 18.171875 5.703125 18.320312 5.714844 18.46875 C 5.738281 18.761719 5.773438 19.054688 5.824219 19.34375 C 5.921875 19.921875 6.070312 20.496094 6.269531 21.046875 C 6.367188 21.324219 6.480469 21.597656 6.605469 21.863281 C 6.636719 21.929688 6.664062 21.996094 6.699219 22.0625 L 6.796875 22.261719 C 6.816406 22.292969 6.832031 22.324219 6.847656 22.359375 L 6.902344 22.453125 C 6.9375 22.519531 6.972656 22.582031 7.007812 22.644531 C 7.304688 23.152344 7.640625 23.636719 8.023438 24.082031 C 8.40625 24.527344 8.832031 24.9375 9.296875 25.296875 C 9.414062 25.382812 9.527344 25.476562 9.652344 25.558594 L 9.742188 25.621094 L 9.785156 25.652344 L 9.832031 25.679688 L 10.019531 25.800781 C 10.046875 25.820312 10.082031 25.839844 10.113281 25.855469 L 10.207031 25.914062 L 10.300781 25.96875 C 10.332031 25.988281 10.367188 26.003906 10.398438 26.023438 C 10.460938 26.058594 10.527344 26.09375 10.589844 26.128906 L 10.789062 26.226562 C 11.050781 26.355469 11.320312 26.472656 11.597656 26.578125 C 11.871094 26.683594 12.152344 26.773438 12.433594 26.851562 C 12.71875 26.929688 13.007812 26.996094 13.296875 27.046875 C 13.441406 27.070312 13.585938 27.09375 13.734375 27.109375 C 13.878906 27.128906 14.027344 27.140625 14.175781 27.144531 C 13.878906 27.144531 13.585938 27.113281 13.292969 27.070312 C 13 27.03125 12.710938 26.96875 12.421875 26.898438 C 12.136719 26.828125 11.851562 26.742188 11.574219 26.640625 C 11.292969 26.539062 11.019531 26.425781 10.753906 26.296875 C 10.484375 26.171875 10.226562 26.027344 9.972656 25.875 L 9.785156 25.753906 L 9.738281 25.726562 L 9.597656 25.632812 C 9.476562 25.550781 9.355469 25.460938 9.238281 25.371094 C 9.003906 25.1875 8.773438 25 8.5625 24.792969 L 8.480469 24.714844 C 8.453125 24.691406 8.425781 24.664062 8.402344 24.636719 L 8.246094 24.476562 C 8.222656 24.449219 8.195312 24.425781 8.171875 24.398438 L 8.097656 24.3125 L 7.949219 24.148438 C 7.921875 24.121094 7.902344 24.089844 7.878906 24.0625 L 7.738281 23.890625 C 7.714844 23.859375 7.691406 23.832031 7.667969 23.800781 L 7.535156 23.625 C 7.511719 23.59375 7.488281 23.566406 7.46875 23.535156 L 7.40625 23.445312 L 7.277344 23.261719 L 7.15625 23.074219 L 7.097656 22.980469 C 7.078125 22.949219 7.058594 22.917969 7.039062 22.886719 L 6.925781 22.691406 C 6.890625 22.628906 6.855469 22.5625 6.820312 22.5 L 6.765625 22.402344 C 6.75 22.367188 6.734375 22.335938 6.71875 22.300781 L 6.617188 22.101562 C 6.585938 22.035156 6.554688 21.96875 6.523438 21.898438 L 6.480469 21.800781 L 6.433594 21.695312 C 6.40625 21.628906 6.378906 21.558594 6.351562 21.492188 L 6.273438 21.285156 C 6.257812 21.25 6.246094 21.214844 6.234375 21.179688 L 6.199219 21.074219 C 6.003906 20.511719 5.863281 19.9375 5.777344 19.351562 C 5.734375 19.058594 5.703125 18.761719 5.6875 18.46875 C 5.671875 18.171875 5.671875 17.878906 5.695312 17.582031 Z M 5.695312 17.582031 " fill-opacity="1" fill-rule="nonzero"/><path stroke-linecap="butt" transform="matrix(0.0199752, 0, 0, 0.0199752, 2.682458, -1.814585)" fill-opacity="1" fill="#ffffff" fill-rule="nonzero" stroke-linejoin="round" d="M 496.962358 115.286328 C 558.562213 100.03303 621.922064 93.775267 685.281915 96.513039 C 715.78851 97.686369 748.641766 101.010806 776.410589 108.246344 C 852.872631 127.997409 855.219293 133.081842 855.219293 133.081842 C 855.219293 133.081842 831.752681 162.219551 769.957271 178.450624 C 737.886236 187.055048 694.277449 188.423934 640.499798 188.423934 C 446.118034 188.423934 410.527006 146.770698 410.527006 146.770698 C 410.527006 146.770698 431.255846 131.517401 496.962358 115.286328 Z M 496.962358 115.286328 " stroke="#1d1d1b" stroke-width="4.979" stroke-opacity="1" stroke-miterlimit="10"/><path stroke-linecap="butt" transform="matrix(0.0199752, 0, 0, 0.0199752, 2.682458, -1.814585)" fill-opacity="1" fill="#ffffff" fill-rule="nonzero" stroke-linejoin="round" d="M 483.273502 269.579298 L 787.166119 270.361518 C 762.917288 318.663627 738.668456 367.16129 714.419624 415.463399 C 692.908564 457.898855 671.593058 500.529865 650.277553 543.160876 C 627.397607 495.836543 600.215449 445.383329 568.144413 392.779008 C 540.7667 347.996891 510.260105 306.539211 483.273502 269.579298 Z M 483.273502 269.579298 " stroke="#1d1d1b" stroke-width="4.979" stroke-opacity="1" stroke-miterlimit="10"/><path stroke-linecap="butt" transform="matrix(0.0199752, 0, 0, 0.0199752, 2.682458, -1.814585)" fill-opacity="1" fill="#ffffff" fill-rule="nonzero" stroke-linejoin="round" d="M 787.166119 270.361518 L 934.810216 222.254965 L 650.277553 543.160876 Z M 787.166119 270.361518 " stroke="#1d1d1b" stroke-width="4.979" stroke-opacity="1" stroke-miterlimit="10"/><path stroke-linecap="butt" transform="matrix(0.0199752, 0, 0, 0.0199752, 2.682458, -1.814585)" fill-opacity="1" fill="#ffffff" fill-rule="nonzero" stroke-linejoin="round" d="M 483.273502 269.579298 C 465.086878 259.801543 443.380262 249.632678 413.069222 242.00603 C 390.384831 236.139377 369.851546 233.59716 352.642698 232.619385 C 451.789131 336.06803 550.935565 439.712231 650.277553 543.160876 C 630.917598 497.987649 605.886546 446.947769 573.03329 393.365673 C 544.091136 346.04134 511.433435 304.19255 483.273502 269.579298 Z M 483.273502 269.579298 " stroke="#1d1d1b" stroke-width="4.979" stroke-opacity="1" stroke-miterlimit="10"/><path stroke-linecap="butt" transform="matrix(0.0199752, 0, 0, 0.0199752, 2.682458, -1.814585)" fill-opacity="1" fill="#ffffff" fill-rule="nonzero" stroke-linejoin="miter" d="M 352.642698 232.619385 L 410.527006 146.770698 C 422.651422 152.832906 436.535834 158.895114 451.984686 164.370657 C 474.277967 172.388416 495.202362 177.472848 513.388986 180.99284 C 508.304554 187.446158 503.024566 195.268362 498.331244 204.655006 C 490.90015 219.908304 483.273502 242.201585 483.273502 269.579298 C 483.273502 269.579298 421.869202 234.574936 352.642698 232.619385 Z M 352.642698 232.619385 " stroke="#1d1d1b" stroke-width="4.979" stroke-opacity="1" stroke-miterlimit="10"/><path stroke-linecap="butt" transform="matrix(0.0199752, 0, 0, 0.0199752, 2.682458, -1.814585)" fill-opacity="1" fill="#ffffff" fill-rule="nonzero" stroke-linejoin="miter" d="M 513.388986 180.99284 C 550.544454 184.903942 592.393245 187.250603 637.957582 186.859493 C 683.326364 186.272827 724.588489 183.143946 761.548402 178.450624 C 765.068394 185.295052 768.783941 192.530591 771.717267 200.743904 C 777.19281 215.801647 783.646128 238.681593 787.166119 270.361518 L 483.273502 269.579298 C 483.273502 258.237102 484.446832 240.832699 491.486816 221.081634 C 497.940134 203.090566 506.740113 189.597264 513.388986 180.99284 Z M 513.388986 180.99284 " stroke="#1d1d1b" stroke-width="4.979" stroke-opacity="1" stroke-miterlimit="10"/><path stroke-linecap="butt" transform="matrix(0.0199752, 0, 0, 0.0199752, 2.682458, -1.814585)" fill-opacity="1" fill="#ffffff" fill-rule="nonzero" stroke-linejoin="miter" d="M 761.548402 178.450624 C 777.58392 173.757301 796.357209 166.912873 816.694939 156.548453 C 831.557126 148.921804 844.463762 140.70849 855.219293 133.081842 C 864.801492 138.361829 875.557023 145.401813 886.508108 154.788457 C 903.521401 169.455089 923.468021 191.74837 934.810216 222.254965 L 787.166119 270.361518 C 785.992789 256.477107 783.450573 239.463813 777.97503 220.690524 C 773.086153 204.068341 767.2195 189.988374 761.548402 178.450624 Z M 761.548402 178.450624 " stroke="#1d1d1b" stroke-width="4.979" stroke-opacity="1" stroke-miterlimit="10"/><path stroke-linecap="butt" transform="matrix(0.0199752, 0, 0, 0.0199752, 2.682458, -1.814585)" fill-opacity="1" fill="#fbf7bd" fill-rule="nonzero" stroke-linejoin="round" d="M 876.730353 334.50359 C 876.730353 334.50359 893.743646 536.707558 667.486401 586.769662 C 667.486401 586.769662 796.357209 537.489778 811.610506 326.876941 Z M 876.730353 334.50359 " stroke="#1d1d1b" stroke-width="5" stroke-opacity="1" stroke-miterlimit="10"/><path stroke-linecap="butt" transform="matrix(0.00214206, -0.01986, 0.01986, 0.00214206, 11.176708, 20.842987)" fill-opacity="1" fill="#fbf7bd" fill-rule="nonzero" stroke-linejoin="round" d="M 860.31988 330.436481 C 860.312386 339.484997 858.776137 347.124886 855.732101 353.550576 C 852.493638 359.997237 848.704249 363.159602 844.169506 363.058642 C 839.850161 363.131138 835.972998 360.008914 832.711473 353.47657 C 829.665346 347.117683 828.048816 339.424467 828.056309 330.375952 C 828.063803 321.327437 829.579082 313.49312 832.838516 307.240887 C 835.882551 300.815196 839.866368 297.63186 844.185713 297.559364 C 848.720456 297.660324 852.403191 300.80352 855.643746 307.141436 C 858.689873 313.500323 860.327373 321.387966 860.31988 330.436481 Z M 860.31988 330.436481 " stroke="#1d1d1b" stroke-width="5" stroke-opacity="1" stroke-miterlimit="10"/><path stroke-linecap="butt" transform="matrix(0.0104415, -0.0170289, 0.0170289, 0.0104415, 2.252401, 16.483174)" fill-opacity="1" fill="#ffffff" fill-rule="nonzero" stroke-linejoin="round" d="M 823.199245 477.350114 C 823.323407 479.797265 821.667264 481.959693 818.666459 483.79967 C 815.396722 485.575155 811.782592 486.414863 807.388425 486.356524 C 802.827547 486.400406 799.164716 485.66425 796.093269 483.647924 C 792.957333 481.90053 791.461749 479.835503 791.504299 477.286132 C 791.444628 474.570049 792.93406 472.509841 796.037086 470.836577 C 799.204602 468.894379 802.985443 467.952451 807.37961 468.01079 C 811.773777 468.069129 815.538829 468.971996 818.674766 470.71939 C 821.643991 472.569004 823.241795 474.800743 823.199245 477.350114 Z M 823.199245 477.350114 " stroke="#1d1d1b" stroke-width="3" stroke-opacity="1" stroke-miterlimit="10"/><path stroke-linecap="butt" transform="matrix(0.0199752, 0, 0, 0.0199752, 2.682458, -1.814585)" fill-opacity="1" fill="#ffffff" fill-rule="nonzero" stroke-linejoin="round" d="M 859.71706 374.787939 L 848.179309 374.787939 C 843.877097 374.787939 840.357105 377.916821 839.574885 382.023478 C 837.423779 395.712334 831.166016 426.610039 817.672714 449.881096 C 817.672714 449.881096 827.646024 451.054426 837.032669 441.081116 C 840.943771 436.974459 843.485987 431.890027 845.050428 426.610039 Z M 859.71706 374.787939 " stroke="#1d1d1b" stroke-width="3" stroke-opacity="1" stroke-miterlimit="10"/><path stroke-linecap="butt" transform="matrix(0.0199752, 0, 0, 0.0199752, 2.682458, -1.814585)" fill-opacity="1" fill="#fbf7bd" fill-rule="nonzero" stroke-linejoin="round" d="M 422.846977 349.170222 C 422.846977 349.170222 418.935875 552.156411 648.126447 587.356328 C 648.126447 587.356328 516.126758 546.485313 487.380159 337.436916 Z M 422.846977 349.170222 " stroke="#1d1d1b" stroke-width="5" stroke-opacity="1" stroke-miterlimit="10"/><path stroke-linecap="butt" transform="matrix(0.0196792, -0.00342573, 0.00342573, 0.0196792, 1.641997, -0.154353)" fill-opacity="1" fill="#fbf7bd" fill-rule="nonzero" stroke-linejoin="round" d="M 487.859167 343.072581 C 487.891972 347.445203 484.649595 351.247687 478.132034 354.480032 C 471.840669 357.553257 464.016609 359.168697 455.078708 359.200769 C 445.948148 359.199304 438.275373 357.665144 431.901263 354.372094 C 425.493616 351.271702 422.17706 347.518426 422.177793 342.953146 C 422.144988 338.580524 425.387365 334.77804 431.904926 331.545695 C 438.196291 328.47247 446.020351 326.85703 454.958252 326.824958 C 464.088812 326.826423 471.728049 328.553241 478.135697 331.653633 C 484.543345 334.754025 487.8599 338.507301 487.859167 343.072581 Z M 487.859167 343.072581 " stroke="#1d1d1b" stroke-width="5" stroke-opacity="1" stroke-miterlimit="10"/><path stroke-linecap="butt" transform="matrix(0.0170289, -0.0104415, 0.0104415, 0.0170289, -0.850371, 4.731139)" fill-opacity="1" fill="#ffffff" fill-rule="nonzero" stroke-linejoin="round" d="M 501.478001 477.195395 C 501.53634 481.589562 500.594411 485.370403 498.652214 488.537919 C 496.978949 491.640945 494.75203 493.028156 492.202659 493.070706 C 489.653287 493.113255 487.58826 491.617672 485.840867 488.481735 C 483.82454 485.410289 482.921674 481.645237 483.132267 477.18658 C 483.073927 472.792413 483.913635 469.178283 485.689121 465.908546 C 487.529097 462.907741 489.691526 461.251598 492.138677 461.375759 C 494.688048 461.33321 496.919786 462.931014 498.769401 465.900239 C 500.516795 469.036176 501.419662 472.801228 501.478001 477.195395 Z M 501.478001 477.195395 " stroke="#1d1d1b" stroke-width="3" stroke-opacity="1" stroke-miterlimit="10"/><path stroke-linecap="butt" transform="matrix(0.0199752, 0, 0, 0.0199752, 2.682458, -1.814585)" fill-opacity="1" fill="#ffffff" fill-rule="nonzero" stroke-linejoin="round" d="M 439.86027 374.787939 L 451.398021 374.787939 C 455.700233 374.787939 459.220225 377.916821 460.002445 382.023478 C 462.153551 395.712334 468.411314 426.610039 481.904616 449.881096 C 481.904616 449.881096 471.931306 451.054426 462.544662 441.081116 C 458.63356 436.974459 455.895788 431.890027 454.526903 426.610039 Z M 439.86027 374.787939 " stroke="#1d1d1b" stroke-width="3" stroke-opacity="1" stroke-miterlimit="10"/></svg>